<?xml version="1.0" encoding="utf-8"?>
<!-- Generator: Adobe Illustrator 27.3.0, SVG Export Plug-In . SVG Version: 6.00 Build 0)  -->
<svg version="1.1"
	 id="svg2" xmlns:inkscape="http://www.inkscape.org/namespaces/inkscape" xmlns:rdf="http://www.w3.org/1999/02/22-rdf-syntax-ns#" xmlns:ns1="http://sozi.baierouge.fr" xmlns:cc="http://creativecommons.org/ns#" xmlns:dc="http://purl.org/dc/elements/1.1/" xmlns:sodipodi="http://sodipodi.sourceforge.net/DTD/sodipodi-0.dtd"
	 xmlns="http://www.w3.org/2000/svg" xmlns:xlink="http://www.w3.org/1999/xlink" x="0px" y="0px" viewBox="0 0 469.6 482.8"
	 style="enable-background:new 0 0 469.6 482.8;" xml:space="preserve">
<style type="text/css">
	.st0{fill:#FFFFFF;}
</style>
<sodipodi:namedview  bordercolor="#666666" borderopacity="1.0" id="base" inkscape:current-layer="layer1" inkscape:cx="-478.91996" inkscape:cy="344.98578" inkscape:document-units="px" inkscape:pageopacity="0.0" inkscape:pageshadow="2" inkscape:window-height="1063" inkscape:window-maximized="0" inkscape:window-width="1836" inkscape:window-x="20" inkscape:window-y="20" inkscape:zoom="0.0875" pagecolor="#ffffff" showgrid="false">
	</sodipodi:namedview>
<g id="layer1" inkscape:groupmode="layer" inkscape:label="Layer 1">
	<path id="path3396" inkscape:connector-curvature="0" class="st0" d="M194.5,481.9c-72.4-3.9-88.6-5.9-104.8-13
		c-9.8-4.3-17.3-5.8-30-5.8c-12.7,0-15.7-1-27.7-8.9C18.4,445.2,0,425.3,0,419.6c0-1.9,1.5-4.3,5-8c4.7-5,5-5.5,3.9-8.2
		C6.8,398,7.5,390,10.7,382c2.7-6.8,3.3-7.5,6-7.8c2.3-0.2,4.1,0.6,7.8,3.8c8.2,7.1,10.8,4.1,9.8-11.5c-1.6-25.8,4.9-69.9,11.9-81.5
		c11.2-18.5,54.9-57.9,76.6-68.9c14.3-7.3,50.1-13.1,71.3-11.7c16.9,1.2,37.4,7.1,48.8,14.1c7.3,4.5,8.8,4.2,18-4.1
		c9-8.1,10.9-9.3,16.8-10.8c3.5-0.9,5.2-2,6.5-4.2c2.7-4.6,3.9-16.7,4.1-39.8c0.2-24.5,0.1-24.9-10.1-37.5
		c-15.1-18.8-24.6-36-26.4-47.9c-1.6-10.4-0.8-64.7,0.9-67.9c2.3-4.1,7-6.2,14.2-6.2c12,0,22.3,7.1,31.4,21.8
		c6.3,10,11.3,16.2,13.4,16.2c2.3,0,3-2.5,3.2-10.5c0.2-13,3.6-17.2,14.9-18.2c5.7-0.5,6.1-0.4,8.9,2.6c4,4.3,15.9,28.7,22,45.1
		c9.5,25.7,12.5,39.3,13.7,61.3c0.7,13.1,1.5,14.7,6.8,14.7c5.5,0,14.6,2,23.3,5.2c10.8,3.9,16.3,8.8,25,22.6
		c3.7,5.9,8.9,13.7,11.5,17.3c2.6,3.6,5.6,8.9,6.8,11.8c3.9,9.9,6.9,14.8,11.4,18.5c5.6,4.6,8.3,8.9,9.7,15.4
		c1.5,7.1,0.4,10.3-7.5,21.3c-10.9,15.2-15.7,19.6-24.5,22.4c-4.1,1.3-12.5,3.2-18.5,4.1c-16.4,2.6-17.7,3-20.8,7.1
		c-3.5,4.7-3.5,8.4,0.1,13.6c5.5,8,6.1,10.1,6.1,19.2c0,12.1-1.7,21.9-5.2,29.9c-2.4,5.5-3.2,9.2-4,18.5c-1.2,14-2.9,20.6-7.1,26.8
		c-3.5,5.2-9.1,8.6-17.2,10.3c-11.9,2.6-17.5,7.9-17.5,16.6c0,8.9,2.4,11.5,21.9,24.5c9.6,6.3,18.4,12.8,19.7,14.3
		c5.1,6,3.7,11.3-4,14.7c-6.4,2.8-27,5.2-41.1,4.7c-14.4-0.5-18-1.9-34.3-13.1c-5.9-4-13.8-9.3-17.7-11.6c-3.9-2.3-8.9-6.4-11.2-9
		c-2.4-2.7-5.4-5-6.8-5.3c-3.9-0.7-9.8,0.9-21,5.7c-7.4,3.2-11.9,4.5-17.3,5c-13.2,1.2-14,3.4-5.7,15.5c7.4,10.8,7.2,13.4-0.9,19
		c-3.1,2.2-6.4,3.3-11.2,4C215.8,483,216.1,483.1,194.5,481.9L194.5,481.9z"/>
</g>
</svg>
