<?xml version="1.0" encoding="utf-8"?>
<!-- Generator: Adobe Illustrator 27.3.0, SVG Export Plug-In . SVG Version: 6.00 Build 0)  -->
<svg version="1.1"
	 id="svg3631" xmlns:inkscape="http://www.inkscape.org/namespaces/inkscape" xmlns:rdf="http://www.w3.org/1999/02/22-rdf-syntax-ns#" xmlns:cc="http://creativecommons.org/ns#" xmlns:dc="http://purl.org/dc/elements/1.1/" xmlns:sodipodi="http://sodipodi.sourceforge.net/DTD/sodipodi-0.dtd" xmlns:svg="http://www.w3.org/2000/svg"
	 xmlns="http://www.w3.org/2000/svg" xmlns:xlink="http://www.w3.org/1999/xlink" x="0px" y="0px" viewBox="0 0 1143.3 589.8"
	 style="enable-background:new 0 0 1143.3 589.8;" xml:space="preserve">
<style type="text/css">
	.st0{fill:#FFFFFF;}
</style>
<path class="st0" d="M1099.3,212.6c-44.5-16.3-92.2,3.3-128.7,22.1c-10.9,4.3-21.4,9.7-31.4,15.1c-16.3,8.7-33,17.7-51.4,21.2l0,0
	c-1,0-1.7-0.4-2.1-1c-1.6-1.9-0.2-6.4,1.4-12.2c2.3-8.5,5.2-19.2,0.2-25.6c-2.9-3.7-8.5-5.4-16.7-5.2l0,0l0,0
	c-44.1-13-73.6-48.3-102.1-82.3c-7-8.3-14.2-17.1-21.5-25c-21.5-27-45.6-49.9-71.2-67.9c-29.1-20-59-33.6-89.5-40.4l0,0
	C538.9,1,485.5-2.3,436,1.6c-58.4,4.9-108.9,19.8-145.8,43.7c-52,35.1-86.6,87.4-120.2,137.6c-15.5,23.3-31.4,47.4-49.1,69.5
	c-2.3,4.5-6.4,9.1-10.5,14c-7.6,8.9-15.5,18.2-13.6,26.4c1.2,4.9,5.6,8.9,13.6,12.2l0,0l0,0c3.7,5.6,4.5,9.9,2.3,12.8
	c-8.3,11.1-58.2-3.5-64.1-5.4c-0.2,0-0.4,0-0.6,0c-5.4,0-12.8-2.7-19.8-5.4c-11.8-4.5-23.9-9.1-28.3-1.6
	c16.5,16.9,39.4,23.5,61.7,29.9c4.5,1.4,8.9,2.5,13.4,3.9c8,1.7,16.3,3.3,24.3,4.9c22.5,4.3,46,8.5,67.4,19.6
	c12.6,2.5,27.4,12,29.1,22.7c1.2,6.4-2.7,12.4-10.9,17.3c-1.4,0.6-2.9,1.4-4.3,1.9c-22.3,10.1-47.8,21.5-50.5,48.5
	c-5,21.4-1.2,44.3,10.1,59.8c8.7,12.2,21.5,19.4,36.7,20.6c38.8-8.3,60.8-41.5,82.1-73.8c6.8-10.1,13.2-19.8,20-28.7l0,0l0,0
	c10.5-2.3,18.6-1.2,25.2,3.5c13.6,9.7,16.5,33.4,19,54.5c1.4,10.9,2.5,21,5,28.7c1,14.9,6.6,29.3,15.3,39.6
	c9.9,11.5,22.9,17.1,37.9,16.5c24.5,4.1,43.7,4.5,58.6,1.7c20.4-3.9,33.8-14.6,39.4-31.3c3.9-19-8.9-24.5-23.9-30.7
	c-14.9-6.2-32-13.4-32-36.9c0-5.4-0.4-9.9-0.6-14c-0.6-7.6-0.8-12.4,1.6-15.9c2.3-3.3,7.4-5.2,17.7-6.4c20.2,1.4,41,1,61,0.6
	c9.5-0.2,18.8-0.4,28.5-0.4c24.7,0,49.7,1.2,73.6,6.4c9.3,0.2,15.3,2.3,18.1,6.6c4.7,7.4-0.6,19.4-6,32c-4.3,10.1-8.9,20.6-8.3,28.5
	l0,0l0,0c-4.7,13.4-6.8,34.6,1.7,50.1c4.9,8.7,12.4,14.4,22.5,16.9c18.1,5.2,40,8.2,58.6,7.6c15.9-0.4,37.7-3.5,50.7-15.3
	c11.6-18.4,19.4-30.7-0.8-49.5c-13-8.7-20-18.8-21.2-31.3c-1.2-12,3.1-25.4,7.8-37.9c2.1-13.4,10.9-19.6,17.9-22.5
	c13.2-5.6,31.3-3.5,42.7,4.7c21.7,13.2,43.1,27.8,63.7,41.7c19.4,13.2,39.6,26.8,60,39.4c19,12.8,37.3-3.1,53.2-17.3
	c7.6-6.8,14.9-13,21.5-15.9c8.3-9.1,11.6-16.1,9.9-21.5c-2.7-8.5-17.3-11.6-31.3-14.6c-2.9-0.6-5.8-1.2-8.5-1.9
	c-23.1-1.4-45.2-8.3-66.8-15.3c-8.3-2.7-17.1-5.4-25.6-7.8c-8.2-2.7-12.2-6-12.2-9.3c0-5.2,9.1-11.1,28-17.9
	c38.8-13.4,78.6-24.8,117.2-35.9c21.9-6.2,44.6-12.8,67.2-19.6c12.8-2.7,31.6-8.5,48.1-20.8c15.5-11.5,25.2-25.6,28.7-42.1
	C1149.4,247.3,1120.4,227.3,1099.3,212.6z"/>
</svg>
